<svg xmlns="http://www.w3.org/2000/svg" fill="none" viewBox="0 0 20 20"><g clip-path="url(#a)"><path fill="#274C5B" fill-rule="evenodd" d="M19.283 9.456c0-5.127-4.317-9.284-9.642-9.284C4.317.172 0 4.329 0 9.456c0 4.634 3.525 8.475 8.135 9.172v-6.487H5.686V9.456h2.449V7.411c0-2.327 1.44-3.613 3.642-3.613 1.055 0 2.158.182 2.158.182v2.285H12.72c-1.197 0-1.571.715-1.571 1.45v1.741h2.673l-.427 2.685h-2.246v6.488c4.61-.697 8.135-4.538 8.135-9.173z" clip-rule="evenodd"/></g><defs><clipPath id="a"><path fill="#fff" d="M0 0H20V19H0z" transform="translate(0 .172)"/></clipPath></defs></svg>