<svg xmlns="http://www.w3.org/2000/svg" fill="none" viewBox="0 0 56 56"><path fill="#274C5B" d="M0 28C0 12.536 12.536 0 28 0s28 12.536 28 28-12.536 28-28 28S0 43.464 0 28z"/><g stroke="#fff" stroke-linecap="round" stroke-linejoin="round" clip-path="url(#a)"><path fill="#fff" stroke-width="1.5" d="M25.778 39a1.222 1.222 0 1 0 0-2.444 1.222 1.222 0 0 0 0 2.444zM34.334 39a1.222 1.222 0 1 0 0-2.444 1.222 1.222 0 0 0 0 2.444z"/><path stroke-width="2" d="M16 17h3.782l2.836 16.073h15.128"/><path stroke-width="2" d="m22.111 29.184 15.247.107a.473.473 0 0 0 .464-.38l1.702-8.51a.472.472 0 0 0-.464-.565H20.567"/></g><defs><clipPath id="a"><path fill="#fff" d="M0 0H26V24H0z" transform="translate(15 16)"/></clipPath></defs></svg>