<svg xmlns="http://www.w3.org/2000/svg" fill="none" viewBox="0 0 20 20"><g fill="#274C5B" clip-path="url(#a)"><path d="M13.659 1.72a4.109 4.109 0 0 1 2.837 1.136 3.81 3.81 0 0 1 1.18 2.732v7.737a3.81 3.81 0 0 1-1.18 2.732 4.109 4.109 0 0 1-2.837 1.136H5.623a4.11 4.11 0 0 1-2.837-1.136 3.81 3.81 0 0 1-1.18-2.732V5.588a3.81 3.81 0 0 1 1.18-2.732 4.11 4.11 0 0 1 2.837-1.137h8.035zm0-1.548H5.623C2.531.172 0 2.609 0 5.588v7.737c0 2.978 2.53 5.416 5.624 5.416h8.035c3.093 0 5.624-2.438 5.624-5.416V5.588c0-2.979-2.531-5.416-5.625-5.416z"/><path d="M14.863 5.589c-.238 0-.471-.068-.67-.196a1.171 1.171 0 0 1-.443-.52 1.12 1.12 0 0 1-.069-.671c.047-.225.162-.432.33-.595a1.22 1.22 0 0 1 .617-.317c.234-.045.476-.022.697.066.22.088.408.236.54.427a1.13 1.13 0 0 1-.149 1.466 1.243 1.243 0 0 1-.853.34zm-5.222.773c.636 0 1.257.182 1.786.522.528.34.94.823 1.183 1.389.244.565.307 1.187.183 1.788-.124.6-.43 1.152-.88 1.585a3.254 3.254 0 0 1-1.645.846 3.33 3.33 0 0 1-1.857-.176 3.192 3.192 0 0 1-1.442-1.14 3.014 3.014 0 0 1-.542-1.719c.001-.82.34-1.607.942-2.187a3.281 3.281 0 0 1 2.272-.908zm0-1.547c-.953 0-1.885.272-2.678.782a4.685 4.685 0 0 0-1.776 2.084 4.483 4.483 0 0 0-.274 2.682c.186.9.645 1.727 1.32 2.377A4.88 4.88 0 0 0 8.7 14.01c.935.18 1.904.087 2.785-.264a4.786 4.786 0 0 0 2.163-1.71 4.52 4.52 0 0 0 .813-2.579 4.557 4.557 0 0 0-1.412-3.283 4.916 4.916 0 0 0-3.409-1.36z"/></g><defs><clipPath id="a"><path fill="#fff" d="M0 0H20V19H0z" transform="translate(0 .172)"/></clipPath></defs></svg>