<svg xmlns="http://www.w3.org/2000/svg" fill="none" viewBox="0 0 20 21"><g clip-path="url(#a)"><path fill="#274C5B" d="M9.797.172C4.387.172 0 4.557 0 9.964c0 4.009 2.414 7.454 5.865 8.97-.026-.681-.005-1.503.17-2.246l1.26-5.338s-.315-.625-.315-1.548c0-1.451.84-2.535 1.89-2.535.892 0 1.32.669 1.32 1.469 0 .896-.573 2.234-.866 3.475-.245 1.04.52 1.884 1.549 1.884 1.854 0 3.105-2.382 3.105-5.206 0-2.147-1.448-3.751-4.076-3.751-2.97 0-4.824 2.216-4.824 4.69 0 .853.253 1.456.647 1.92.18.214.205.301.14.546-.048.18-.153.612-.201.787-.066.25-.267.337-.49.245-1.37-.56-2.008-2.055-2.008-3.742 0-2.78 2.349-6.116 7.002-6.116 3.74 0 6.202 2.706 6.202 5.609 0 3.842-2.139 6.71-5.288 6.71-1.058 0-2.05-.573-2.392-1.22 0 0-.568 2.256-.69 2.693-.206.757-.613 1.508-.985 2.099a9.85 9.85 0 0 0 2.777.402c5.41 0 9.797-4.385 9.797-9.792 0-5.408-4.382-9.797-9.792-9.797z"/></g><defs><clipPath id="a"><path fill="#fff" d="M0 0H20V20H0z" transform="translate(0 .172)"/></clipPath></defs></svg>