<svg xmlns="http://www.w3.org/2000/svg" fill="none" viewBox="0 0 21 18"><g clip-path="url(#a)"><path fill="#274C5B" d="M20.66 2.13a8.686 8.686 0 0 1-2.434.659A4.197 4.197 0 0 0 20.091.482a8.511 8.511 0 0 1-2.693 1.011A4.266 4.266 0 0 0 14.303.172c-2.342 0-4.238 1.868-4.238 4.17-.001.321.035.64.11.952A12.082 12.082 0 0 1 1.437.934 4.119 4.119 0 0 0 .861 3.03a4.16 4.16 0 0 0 1.894 3.473 4.197 4.197 0 0 1-1.928-.52v.051c0 2.023 1.464 3.706 3.4 4.09-.364.096-.739.146-1.116.146-.267 0-.534-.026-.797-.078.539 1.657 2.106 2.862 3.962 2.897A8.591 8.591 0 0 1 0 14.815 11.995 11.995 0 0 0 6.488 16.7c7.806 0 12.07-6.357 12.07-11.871 0-.18-.004-.362-.012-.538a8.543 8.543 0 0 0 2.114-2.16z"/></g><defs><clipPath id="a"><path fill="#fff" d="M0 0H21V17H0z" transform="translate(0 .172)"/></clipPath></defs></svg>